<?xml version="1.0" encoding="UTF-8" standalone="no" ?>
<!DOCTYPE svg PUBLIC "-//W3C//DTD SVG 1.1//EN" "http://www.w3.org/Graphics/SVG/1.1/DTD/svg11.dtd">
<svg xmlns="http://www.w3.org/2000/svg" xmlns:xlink="http://www.w3.org/1999/xlink" version="1.1" width="500" height="500" viewBox="0 0 500 500" xml:space="preserve">
<desc>Created with Fabric.js 4.6.0</desc>
<defs>
</defs>
<g transform="matrix(6.18 0 0 6.18 250 242.44)" id="1t0CRBQPzU-F6Ya_41NGC"  >
<path style="stroke: none; stroke-width: 1; stroke-dasharray: none; stroke-linecap: butt; stroke-dashoffset: 0; stroke-linejoin: miter; stroke-miterlimit: 4; fill: rgb(255,255,255); fill-rule: nonzero; opacity: 1;" vector-effect="non-scaling-stroke"  transform=" translate(-12, -11.99)" d="M 17 10 C 16.8 10 16.5 10 16.3 10 L 13.5 2.0999999999999996 C 17.7 2.6999999999999997 21 5.8999999999999995 21.8 10 C 22.2 10.2 23.400000000000002 11.3 24 12.2 C 24 4.4 17.5 -0.3 11.3 0 L 6.4 13.7 C 6.2 14.2 6.5 14.8 7 15 L 7 15 C 7.5 15.2 8.1 14.9 8.3 14.4 L 12 4 L 15.7 14.4 C 15.899999999999999 14.9 16.5 15.200000000000001 17 15 C 17.5 14.8 17.8 14.2 17.6 13.7 L 17 12 C 17 12 17 12 17 12 C 19.8 12 22 14.2 22 17 C 22 19.8 19.8 22 17 22 C 14.2 22 12 19.8 12 17 C 12 15.7 12.5 14.5 13.3 13.7 L 12.600000000000001 11.6 C 11 12.9 10 14.8 10 17 C 10 18.2 10.3 19.3 10.8 20.2 C 9.8 21.4 8.5 22 7 22 C 4.2 22 2 19.8 2 17 C 2 15.1 3.1 13.5 4.7 12.6 L 5.6000000000000005 10.1 C 2.4 10.8 0 13.6 0 17 C 0 20.9 3.1 24 7 24 C 8.9 24 10.7 23.2 12 21.9 C 13.3 23.2 15 24 17 24 C 20.9 24 24 20.9 24 17 C 24 13.1 20.9 10 17 10 z" stroke-linecap="round" />
</g>
</svg>